<?xml version="1.0" standalone="no"?>
<!DOCTYPE svg PUBLIC "-//W3C//DTD SVG 1.1//EN" "http://www.w3.org/Graphics/SVG/1.1/DTD/svg11.dtd">
<svg xmlns="http://www.w3.org/2000/svg">
<metadata>Copyright (C) 2025 by original authors @ fontello.com</metadata>
<defs>
<font id="adritian-icons" horiz-adv-x="1000" >
<font-face font-family="adritian-icons" font-weight="400" font-stretch="normal" units-per-em="1000" ascent="850" descent="-150" />
<missing-glyph horiz-adv-x="1000" />
<glyph glyph-name="threads" unicode="&#xe800;" d="M648 465q2 0 6-2 2-2 6-4 86-41 121-119 24-54 16-131t-76-148q-100-104-278-104h-2q-205 2-312 137-96 121-98 332 2 211 98 332 107 135 312 137h2q207-2 317-137 55-66 80-160l-80-19q-20 74-63 127-86 105-254 107-168-2-252-107-76-98-78-280 2-181 78-279 84-106 252-107 145 0 221 80 47 48 53 99t-10 88q-19 43-62 68-12-78-49-127-51-64-143-68-70-4-125 31-60 43-66 116-2 72 47 117 50 45 138 53 63 1 118-6-8 43-30 68-29 35-90 35h-2q-25 0-54-10-28-11-49-43l-68 47q58 86 171 88h2q188-6 203-211h-1 1z m-304-134q2-36 33-53 33-18 72-16 39 0 74 28 34 27 43 115-39 10-85 10-14 0-28-2-62-4-88-28-25-25-21-53v-1z" horiz-adv-x="875" />

<glyph glyph-name="bluesky" unicode="&#xe801;" d="M797 350h-2q-10 2-18 4 6-2 10-2t10-2z m-234 133q-41 80-131 189-88 112-188 186-92 62-137 66-42 6-64-9-27-14-35-45t-8-57q0-22 6-86 4-64 10-129 7-66 13-90 32-95 118-133 84-35 181-25 6 2 12 2 4 0 8 2l-20-4q-94-12-162-45t-72-99q-2-69 101-188 118-113 190-88t115 117q41 90 63 172v2q5-17 11-39 20-80 55-158 37-76 105-92 71-16 192 86 96 102 96 170-2 70-67 109-64 41-158 53-2 0-2 2-10 0-18 2 6-2 10-2t10-2q98-10 182 25 86 38 117 133 6 24 13 90 6 65 10 129 6 64 6 86 0 25-8 57t-35 45q-19 13-64 9t-137-66q-100-74-188-186-89-109-130-189z" horiz-adv-x="1125" />

<glyph glyph-name="x-twitter" unicode="&#xe802;" d="M760 832h138-138 138l-300-343 353-469h-277l-217 283-248-283h-139l323 367-340 445h283l197-259 227 259z m-49-730h78-78 78l-494 652h-82l498-652z" horiz-adv-x="1000" />

<glyph glyph-name="email" unicode="&#xe803;" d="M0 62l0 576q0 1 3 19l339-290-338-325q-4 14-4 20z m45 635q7 3 17 3l913 0q9 0 18-3l-340-291-45-36-89-73-89 73-45 36z m1-694l341 327 132-107 132 107 341-327q-8-3-17-3l-913 0q-8 0-16 3z m650 364l338 290q3-9 3-19l0-576q0-9-3-20z" horiz-adv-x="1037" />

<glyph glyph-name="tiktok" unicode="&#xe804;" d="M875 516q-133 0-240 76v-347q0-102-57-182-55-80-148-117-96-34-190-10t-162 100q-64 76-76 173-10 96 37 186 49 88 135 133 88 43 187 31v-176q-46 14-89-2-43-13-73-52-27-39-27-86 0-45 27-86 30-37 74-51 43-16 90 0 45 16 73 53t27 86v681h172q0-21 4-43 21-99 105-156 61-39 131-41v-170z" horiz-adv-x="875" />

<glyph glyph-name="search" unicode="&#xe805;" d="M680 256c-55-55-126-83-197-83-65 0-129 23-182 66l-51-125-130-130c-14-10-29-15-45-15-41 0-75 37-75 77 0 16 5 32 15 45l129 130 126 51c-44 52-66 117-66 182 0 152 127 277 279 277 150 0 277-128 277-278 0-72-26-144-80-197z m-319 75c34-33 78-50 122-50 92 0 170 77 170 172 0 93-79 170-170 170-94 0-172-79-172-170 0-45 17-89 50-122z" horiz-adv-x="760" />

<glyph glyph-name="user" unicode="&#xf007;" d="M438 350c-139 0-250 112-250 250s111 250 250 250 250-112 250-250-112-250-250-250z m175-62c144 0 262-118 262-263v-81c0-52-42-94-94-94h-687c-52 0-94 42-94 94v81c0 145 118 263 263 263h32c44-20 92-32 143-32s99 12 142 32h33z" horiz-adv-x="875" />

<glyph glyph-name="table-list" unicode="&#xf00b;" d="M0 739q2 52 37 88 35 35 88 37h750q53-2 88-37t37-88v-625q-2-53-37-88t-88-37h-750q-53 2-88 37t-37 88v625z m125 0v-125 125-125h125v125h-125z m750 0h-500 500-500v-125h500v125z m-750-250v-125 125-125h125v125h-125z m750 0h-500 500-500v-125h500v125z m-750-250v-125 125-125h125v125h-125z m750 0h-500 500-500v-125h500v125z" horiz-adv-x="1000" />

<glyph glyph-name="download" unicode="&#xf019;" d="M563 864q0 27-18 45-18 17-45 17t-45-17-17-45v-475l-143 145q-20 17-45 17t-45-17q-17-20-17-45t17-45l250-250q20-18 45-18t45 18l250 250q18 19 18 45t-18 45q-20 17-45 17t-45-17l-142-145v475z m-438-625q-53-2-88-37-35-36-37-88v-63q2-53 37-88t88-37h750q53 2 88 37t37 88v63q-2 52-37 88t-88 37h-197l-90-88q-39-37-88-37-51 0-88 37l-88 88h-199z m719-110q43-4 47-47-4-42-47-46-43 4-47 46 4 43 47 47z" horiz-adv-x="1000" />

<glyph glyph-name="circle-info" unicode="&#xf05a;" d="M500-74q137 2 250 67 113 66 184 183 66 119 66 250t-66 250q-71 117-184 184-113 64-250 66-137-2-250-66-113-67-184-184-66-119-66-250t66-250q71-117 184-183 113-65 250-67z m-78 344h47-47 47v125h-47q-43 4-47 47 4 43 47 47h94q43-4 47-47v-172h15q43-4 47-47-4-43-47-47h-156q-43 4-47 47 4 43 47 47z m78 406q27 0 45-17 18-18 18-45t-18-45-45-18-45 18-17 45 17 45 45 17z" horiz-adv-x="1000" />

<glyph glyph-name="square-twitter" unicode="&#xf081;" d="M125 864q-53-2-88-37-35-36-37-88v-625q2-53 37-88t88-37h625q53 2 88 37t37 88v625q-2 52-37 88t-88 37h-625z m561-326q0-88-41-170-43-84-123-139-82-55-200-57-111 2-197 57h31q92 0 159 55-43 0-75 25-33 23-45 63 28-4 57 1-43 10-72 45-30 34-30 82v2q26-15 59-17-27 17-43 47-16 27-16 60 2 35 18 65 49-59 117-94 67-35 147-41-10 68 27 111 37 45 100 47 56-2 91-41 45 10 82 31-15-45-56-70 39 4 74 20-27-39-64-67v-15z" horiz-adv-x="875" />

<glyph glyph-name="square-facebook" unicode="&#xf082;" d="M125 864q-53-2-88-37-35-36-37-88v-625q2-53 37-88t88-37h191v285h-103v152h103v67q-1 252 245 248 25 0 58-4 31-4 51-8v-139q-20 2-59 2-60 0-88-25-25-27-25-86v-55h164l-29-152h-135v-285h252q53 2 88 37t37 88v625q-2 52-37 88t-88 37h-625z" horiz-adv-x="875" />

<glyph glyph-name="linkedin" unicode="&#xf08c;" d="M813 864h-750 750-750q-28 0-45-18-18-19-18-45v-750q0-25 18-45 17-17 45-17h750q27 0 44 17 18 20 18 45v750q0 26-18 45-17 18-44 18z m-549-750h-129 129-129v418h131v-418h-2z m-65 474q-31 0-52 22-22 21-22 53 0 33 22 54t52 22q33 0 53-22 21-21 23-54-2-32-23-53-20-22-53-22z m551-474h-129 129-129v203q2 39-10 74-9 33-58 37-49-2-65-33-13-31-11-74v-207h-131v418h125v-57h2q11 25 43 45 31 21 80 21 95-1 127-56 31-57 27-143v-228z" horiz-adv-x="875" />

<glyph glyph-name="square-github" unicode="&#xf092;" d="M875 739q-2 52-37 88-35 35-88 37h-625q-53-2-88-37t-37-88v-625q2-53 37-88t88-37h625q53 2 88 37t37 88v625z m-355-610v110q-2 45-22 58 57 4 102 28 43 25 47 115-2 49-34 76 2 8 6 31 2 24-10 57-23 4-54-14t-35-19q-39 10-80 10-43 0-83-10-3 2-35 19t-54 14q-12-33-10-57 4-23 8-31-32-27-32-76 2-90 45-113 43-26 100-30-14-11-20-43-15-7-44-7-28 0-51 35-14 21-32 27-15 6-17 6-22-2-14-10 8-10 12-10 16-9 25-27t10-20q20-41 63-41 43-1 46 2v-74q0-4 2-6 0-15-23-15-98 35-158 117-59 84-61 193 2 137 90 225t227 90q136-2 228-90t96-225q-2-109-61-193-56-82-156-117-23 0-21 15z m-178 108q0 6 6 6 8 0 8-4t-6-6q-6 0-8 4z m-18-6q-6 0-8 4 2 4 8 6 6 0 8-6-2-4-8-4z m-27 4q-6 2-6 6 2 4 8 4 6-2 6-8-2-4-8-2z m-25 13q-4 6-2 8 3 4 9 0 4-6 2-8-4-3-9 0z m-16 20q-4 6 0 8t8-2q2-6 0-8-4-2-8 2z m-12 18q-4 4-2 7 4 2 8-2 2-3 0-5-4-4-6 0z m-12 13q-3 2-3 4 2 2 5 2 4-4 2-6 0-2-4 0z" horiz-adv-x="875" />

<glyph glyph-name="circle-arrow-left" unicode="&#xf0a8;" d="M1000 426q-2 137-66 250-67 114-184 184-119 66-250 66t-250-66q-117-70-184-184-64-113-66-250 2-136 66-250 67-113 184-183 119-67 250-67t250 67q117 70 184 183 64 114 66 250z m-580 252q33 28 66 0 28-33 0-66l-138-139h418q43-4 47-47-4-43-47-47h-418l138-138q28-34 0-67-33-27-66 0l-219 219q-27 33 0 66l219 219z" horiz-adv-x="1000" />

<glyph glyph-name="circle-arrow-right" unicode="&#xf0a9;" d="M0 426q2-136 66-250 67-113 184-183 119-67 250-67t250 67q117 70 184 183 64 114 66 250-2 137-66 250-67 114-184 184-119 66-250 66t-250-66q-117-70-184-184-64-113-66-250z m580-252q-33-27-66 0-28 33 0 67l138 138h-418q-43 4-46 47 3 43 46 47h418l-138 139q-28 33 0 66 33 28 66 0l219-219q27-33 0-66l-219-219z" horiz-adv-x="1000" />

<glyph glyph-name="circle-arrow-up" unicode="&#xf0aa;" d="M500-74q137 2 250 67 113 66 184 183 66 119 66 250t-66 250q-71 117-184 184-113 64-250 66-137-2-250-66-113-67-184-184-66-119-66-250t66-250q71-117 184-183 113-65 250-67z m252 580q27-33 0-66-33-27-66 0l-139 139v-418q-4-43-47-47-43 4-47 47v418l-138-139q-34-27-67 0-27 33 0 66l219 219q33 27 66 0l219-219z" horiz-adv-x="1000" />

<glyph glyph-name="circle-arrow-down" unicode="&#xf0ab;" d="M500 926q-137-2-250-66-113-67-184-184-66-119-66-250t66-250q71-117 184-183 113-65 250-67 137 2 250 67 113 66 184 183 66 119 66 250t-66 250q-71 117-184 184-113 64-250 66z m-252-580q-27 33 0 67 33 27 67 0l138-139v418q4 43 47 47 43-4 47-47v-418l139 139q33 27 66 0 27-34 0-67l-219-219q-33-27-66 0l-219 219z" horiz-adv-x="1000" />

<glyph glyph-name="quote-left" unicode="&#xf10d;" d="M0 504q2 100 68 166t166 69h16q27 0 45-18t18-45-18-45-45-17h-16q-46-2-78-32-29-31-31-78v-15h125q53-2 88-37t37-88v-125q-2-53-37-88t-88-37h-125q-53 2-88 37t-37 88v265z m500 0q2 100 68 166t166 69h16q27 0 45-18t18-45-18-45-45-17h-16q-46-2-78-32-29-31-31-78v-15h125q53-2 88-37t37-88v-125q-2-53-37-88t-88-37h-125q-53 2-88 37t-37 88v265z" horiz-adv-x="875" />

<glyph glyph-name="face-smile" unicode="&#xf118;" d="M906 426q0 112-54 203-53 92-149 149-96 54-203 54t-203-54q-96-57-149-149-54-91-54-203t54-203q53-92 149-148 96-55 203-55t203 55q96 56 149 148 54 92 54 203z m-906 0q2 137 66 250 67 114 184 184 119 66 250 66t250-66q117-70 184-184 64-113 66-250-2-136-66-250-67-113-184-183-119-67-250-67t-250 67q-117 70-184 183-64 114-66 250z m348-121q21-25 60-45 37-19 92-21 55 2 92 21 39 20 60 45 34 29 67 2 29-31 4-66-33-35-88-65-57-29-135-31-78 2-135 31-54 30-88 65-25 35 4 66 34 27 67-2z m-67 215q2 27 20 45 17 17 43 17 27 0 45-17t17-45-17-45-45-18q-26 0-43 18t-20 45z m375 62q28 0 45-17 18-18 18-45t-18-45-45-18q-25 0-43 18t-19 45q2 27 19 45t43 17z" horiz-adv-x="1000" />

<glyph glyph-name="square-arrow-up-right" unicode="&#xf14c;" d="M750 864q53-2 88-37 35-36 37-88v-625q-2-53-37-88t-88-37h-625q-53 2-88 37t-37 88v625q2 52 37 88t88 37h625z m-437-219q-43-4-47-47 4-43 47-47h183l-264-263q-27-34 0-67 34-27 67 0l264 264v-199q3-43 46-47 43 4 47 47v312q-4 43-47 47h-296z" horiz-adv-x="875" />

<glyph glyph-name="youtube" unicode="&#xf167;" d="M1074 684q-23 72-95 96-47 10-145 15-98 4-182 6h-179q-84-2-182-6-98-5-144-15-73-24-96-96-10-45-16-103-4-61-6-108v-96q2-46 6-105 6-61 16-106 23-72 96-93 46-10 144-16 98-4 182-6h179q84 2 182 6 98 6 145 16 72 21 95 93 10 45 16 106 4 59 6 105v96q-2 47-6 108-6 58-16 103z m-621-418v318-318 318l279-158-279-160z" horiz-adv-x="1125" />

<glyph glyph-name="square-xing" unicode="&#xf169;" d="M875 739q-2 52-37 88-35 35-88 37h-625q-53-2-88-37t-37-88v-625q2-53 37-88t88-37h625q53 2 88 37t37 88v625z m-691-438q-18 2-12 20l96 170-61 105q-8 18 12 20h90q15 0 25-18l63-107q-4-6-98-172-10-18-26-18h-89z m318 65l129-233q6-17-12-19h-92q-15 0-25 17l-129 235q6 9 125 216 20 36 41 75 18 31 37 64 10 18 24 18h91q18-2 12-20l-201-353z" horiz-adv-x="875" />

<glyph glyph-name="stack-overflow" unicode="&#xf16c;" d="M568 319l-382 80 382-80-382 80-16-76 383-80z m100 170l-301 250 301-250-301 250-49-61 299-250z m-61-78l-355 166 355-166-355 166-31-73 353-164z m-95 453l-63-47 63 47-63-47 233-313 62 47z m41-641h-391 391-391v-78h391v78z m76-156h-545 545-545v234h-78v-312h701v312h-78v-234z" horiz-adv-x="750" />

<glyph glyph-name="instagram" unicode="&#xf16d;" d="M438 651q-96-2-159-67-64-62-66-158 2-95 66-158 63-64 159-66 95 2 158 66 64 63 66 158-2 96-66 158-63 65-158 67z m0-371q-63 2-104 43-41 41-43 103 2 63 43 104t104 43q62-2 103-43t43-104q-2-62-43-103t-103-43z m287 381q-6-49-53-53-49 4-53 53 0 21 16 37 13 13 37 13 21 0 37-13 14-16 16-37z m148-55q0 107-72 184-76 72-182 72-39 2-111 2h-141q-72 0-109-2-106 0-184-72-72-77-70-182-4-39-4-111v-141t4-109q-2-108 70-184 76-72 184-70 37-2 109-4h141q72 2 111 4 106-2 182 70 72 76 72 184 2 39 2 109v141q0 72-2 111v-2z m-94-438q-25-58-84-84-39-13-105-15t-121-2h-63q-54 0-121 2-64 2-105 15-59 26-84 84-14 41-16 106-2 66-2 121v62q0 55 2 122t16 105q25 59 84 84 41 14 105 16 67 4 121 2h63q54 0 121-2t105-16q59-25 84-84 14-39 16-105 4-67 2-122v-62q2-55-2-121-2-67-16-106z" horiz-adv-x="875" />

<glyph glyph-name="dribbble" unicode="&#xf17d;" d="M500 911q-135-2-244-67-109-64-174-174-64-109-66-244 2-135 66-244t174-174 244-66q135 2 244 66t174 174 66 244q-2 135-66 244t-174 174-244 67z m320-223q90-109 94-258-14 4-98 14t-191-2q-16 39-35 82 113 51 170 101 55 49 60 63z m-47 47q-3-12-54-59-53-47-162-90-53 94-98 162-45 67-57 81 100 23 198-2 97-24 173-92z m-449 64q10-11 55-78 45-66 98-160-149-37-256-45t-125-6q19 98 80 172 60 76 148 117z m-238-373v12q20-2 143 6 123 10 283 53 17-36 33-71-113-33-207-111t-145-166q-103 113-107 277z m160-326q33 68 117 141 84 72 211 117 43-115 63-199 21-84 25-114-101-43-213-31-109 14-203 86z m485-18q-2 22-22 102-18 80-59 193 100 14 172 0 73-11 86-17-13-86-60-158-47-71-117-120z" horiz-adv-x="1000" />

<glyph glyph-name="behance" unicode="&#xf1b4;" d="M453 463q94 41 94 145-2 101-65 137-64 37-156 35h-326v-694h336q98 0 168 49 72 47 76 153 0 134-127 175z m-301 198h143-143 143q43 2 72-16 31-16 31-63 0-44-25-64t-66-20h-155v163z m163-457h-163 163-163v191h166q106 4 110-100-2-50-33-72-32-19-80-19z m701 470h-282 282-282v69h282v-69z m109-343q0 113-62 191-63 76-182 80-115-2-186-76-68-74-70-190 0-119 68-189 69-72 188-74 180 0 234 170h-121q-12-34-43-49-33-18-66-18-121 4-123 129h361q2 12 2 26z m-363 60q11 104 115 107 102-3 109-107h-224z" horiz-adv-x="1125" />

<glyph glyph-name="file-pdf" unicode="&#xf1c1;" d="M0 801q2 53 37 88 35 35 88 37h313v-250q0-27 17-45t45-17h250v-282h-406q-53-1-88-37t-37-88v-281h-94q-53 2-88 37t-37 88v750z m750-125h-250 250-250v250l250-250z m-406-437h62-62 62q47-2 78-32 30-31 32-78-2-47-32-78-31-29-78-31h-31v-63q-2-29-31-31-29 2-31 31v250q2 30 31 32z m62-157q43 4 47 47-4 43-47 47h-31v-94h31z m188 157h62-62 62q39-2 67-28 25-27 27-66v-125q-2-39-27-67-28-25-67-27h-62q-29 2-31 31v250q2 30 31 32z m62-250q30 2 32 31v125q-2 29-32 31h-31v-187h31z m157 218q2 30 31 32h94q29-2 31-32-2-29-31-31h-63v-62h63q29-2 31-32-2-29-31-31h-63v-94q-2-29-31-31-29 2-31 31v250z" horiz-adv-x="1000" />

<glyph glyph-name="codepen" unicode="&#xf1cb;" d="M981 614l-458 304 458-304-458 304q-23 16-46 0l-457-304q-20-12-20-35v-305q0-22 20-35l457-305q23-16 46 0l458 305q19 13 19 35v305q0 23-19 35z m-438 189l336-224-336 224 336-224-150-100-186 123v201z m-86 0v-201 201-201l-185-123-151 100 336 224z m-371-305l107-72-107 72 107-72-107-72v144z m371-449l-336 225 336-225-336 225 151 99 185-123v-201z m43 276l-152 101 152-101-152 101 152 102 152-102-152-101z m43-276v201-201 201l186 123 150-99-336-225z m371 305l-107 72 107-72-107 72 107 72v-144z" horiz-adv-x="1000" />

<glyph glyph-name="yelp" unicode="&#xf1e9;" d="M84 457l195-95-195 95 195-95q28-16 24-45-2-27-33-39l-209-51q-22-6-38 6t-19 31q-10 86 18 166 7 20 25 27 19 8 37 0z m86-468q70-47 154-63 20-2 37 10 14 14 16 33l8 217q-2 31-28 43-27 10-50-12l-145-160q-14-16-12-35 4-22 20-33z m283 215l115-184-115 184 115-184q12-16 32-20t35 10q66 55 103 131 8 20 0 37-7 20-27 26l-205 66q-31 8-49-14-17-23-4-52z m291 259q-35 78-99 135-16 14-36 10-19-2-31-20l-121-177q-16-30 2-53 16-24 47-16l209 59q19 6 27 25 10 18 2 37z m-623 405q-17-10-23-28-6-19 4-35l203-353q21-28 51-20t33 43v406q0 20-14 34-16 13-35 11-113-10-219-58z" horiz-adv-x="750" />

<glyph glyph-name="medium" unicode="&#xf23a;" d="M0 788h875v-876h-875v876z m727-208v10h-162l-116-289-132 289h-170v-10l54-66c6-5 9-12 8-19v-260c1-9-2-19-8-26l-62-74v-10h176v10l-62 74c-7 7-10 17-9 26v225l154-335h18l132 335v-268c0-7 0-8-5-13l-47-46v-9h230v10l-46 45c-4 2-6 8-5 13v330c-1 5 1 10 5 13z" horiz-adv-x="875" />

<glyph glyph-name="meetup" unicode="&#xf2e0;" d="M193 118q2-20-15-26-18-2-24 16-2 19 16 25 18 2 23-15z m280-141q-20-16-8-39 17-20 39-6 19 16 8 39-16 20-39 6z m-168 904q19 6 17 28-6 19-27 17-20-8-18-27 6-22 28-18z m-239-396q-33 19-58-12-20-35 12-60 33-20 58 9 20 37-12 63z m532 334q33 23 15 58-23 32-58 16-32-23-14-61 22-31 57-13z m-373-113q23 19 9 44-19 24-46 10-22-21-8-47 19-23 45-7z m728-305q-25-8-21-33 8-24 31-22 23 8 21 33-7 24-31 22z m76 109q-4 18-23 16-18-4-16-24 6-17 26-15 17 6 13 23z m-156 145q-25-22-10-51 22-25 51-10 26 22 10 51-22 27-51 10z m-12-272q37-66 24-136-14-71-76-116-51-37-110-35-23-68-86-88-64-19-121 26 0-2-2-2l-4-4q-60-39-125-28-66 12-109 71-27 43-29 92-65 13-98 60-35 49-33 108 4 58 51 105-39 72-8 141 33 68 113 84 41 99 137 132 94 34 181-27 104 29 182-29 78-61 74-168 61-24 75-82 11-59-36-104z m-136-146q-10 25-41 25-18 2-30 8-11 4-13 21-2 24 9 59 14 35 32 72 15 37 27 67 12 31 10 52-6 34-26 45t-41 12q-33 0-41-8v-2h-2q-7-9-21 2l-4 4q-14 16-33 22-31 4-53-20l-4-4q-6-6-15-11t-20-2q-6 2-19 9l-28 12q-25 10-53-2-27-14-41-37-17-33-41-105-21-73-35-118-4-15-6-21-11-41 10-67 24-27 63-25 29-2 48 33 4 8 18 41 14 35 29 76 14 40 26 69t15 35q8 14 28 10 15-12 11-30 0-9-9-35t-22-52q-21-51-25-65-2-33 27-37t49 29q4 10 23 49l45 90q24 45 28 55 11 15 23 15 14 4 14-21-2-8-12-30t-21-48q-16-30-28-55-11-27-15-39-6-31 7-59 14-25 41-41 24-9 69-11 47-2 47 33z m9-180q-31-27-9-63 25-33 62-11 31 25 12 62-27 34-65 12z" horiz-adv-x="1000" />

<glyph glyph-name="cloud-arrow-down" unicode="&#xf381;" d="M281-11q-119 4-199 82-78 80-82 199 2 94 53 164t135 102v15q3 133 91 221t221 92q88-2 158-43 71-43 114-114 44 32 103 32 80-2 133-55t55-133q0-35-12-68 86-18 142-86 55-66 57-158-2-106-72-178-72-70-178-72h-719z m155 326l156-156-156 156 156-156q33-28 66 0l157 156q27 33 0 66-34 28-67 0l-76-76v262q-4 43-47 47-43-4-47-47v-262l-76 76q-33 28-66 0-28-33 0-66z" horiz-adv-x="1250" />
</font>
</defs>
</svg>
