<svg xmlns="http://www.w3.org/2000/svg" viewBox="0 0 29 29" shape-rendering="crispEdges"><path fill="#3a7b7c" d="M0 0h29v29H0z"/><path stroke="#ffffff" d="M0 0.5h7m1 0h1m1 0h2m1 0h3m2 0h1m3 0h7M0 1.5h1m5 0h1m1 0h1m4 0h3m1 0h1m1 0h1m2 0h1m5 0h1M0 2.5h1m1 0h3m1 0h1m1 0h1m3 0h3m3 0h3m1 0h1m1 0h3m1 0h1M0 3.5h1m1 0h3m1 0h1m2 0h2m3 0h2m1 0h1m2 0h1m1 0h1m1 0h3m1 0h1M0 4.5h1m1 0h3m1 0h1m1 0h2m2 0h2m1 0h1m2 0h2m2 0h1m1 0h3m1 0h1M0 5.5h1m5 0h1m5 0h3m7 0h1m5 0h1M0 6.5h7m1 0h1m1 0h1m1 0h1m1 0h1m1 0h1m1 0h1m1 0h1m1 0h7M11 7.5h2m1 0h1m5 0h1M0 8.5h1m2 0h9m1 0h9m2 0h1m1 0h3M2 9.5h1m4 0h1m1 0h3m2 0h1m2 0h3m3 0h2m1 0h2M2 10.5h6m2 0h2m2 0h1m6 0h1m1 0h1m2 0h1M1 11.5h1m2 0h2m1 0h2m2 0h2m1 0h2m1 0h6m2 0h1m2 0h1M0 12.5h3m1 0h1m1 0h2m2 0h5m1 0h1m3 0h1m1 0h2m4 0h1M3 13.5h1m3 0h1m1 0h2m1 0h1m4 0h2m3 0h1m1 0h5M2 14.5h2m1 0h3m2 0h2m2 0h2m2 0h3m1 0h2m2 0h1m1 0h1M2 15.5h3m2 0h2m1 0h1m2 0h3m6 0h3m1 0h1m1 0h1M1 16.5h2m1 0h7m1 0h1m6 0h2m4 0h1M0 17.5h3m1 0h2m1 0h1m1 0h1m5 0h2m1 0h4m2 0h1m1 0h2M0 18.5h4m1 0h3m1 0h2m2 0h4m2 0h4m2 0h1m2 0h1M0 19.5h2m2 0h1m3 0h3m1 0h2m1 0h2m1 0h1m3 0h5M0 20.5h3m1 0h1m1 0h1m3 0h4m1 0h1m1 0h1m2 0h8M8 21.5h1m4 0h1m1 0h1m2 0h1m1 0h1m3 0h2M0 22.5h7m1 0h2m3 0h1m1 0h2m2 0h2m1 0h1m1 0h2M0 23.5h1m5 0h1m1 0h1m3 0h2m1 0h6m3 0h1m2 0h2M0 24.5h1m1 0h3m1 0h1m1 0h1m3 0h2m1 0h2m2 0h7m1 0h2M0 25.5h1m1 0h3m1 0h1m1 0h2m2 0h1m1 0h5m1 0h2m1 0h1m4 0h1M0 26.5h1m1 0h3m1 0h1m2 0h3m1 0h1m1 0h1m1 0h1m1 0h1m1 0h1m1 0h2m1 0h3M0 27.5h1m5 0h1m3 0h1m2 0h3m7 0h1m1 0h2m1 0h1M0 28.5h7m1 0h1m2 0h2m1 0h1m3 0h3m3 0h2"/></svg>
